<svg width="32" height="32" viewBox="0 0 32 32" fill="none" xmlns="http://www.w3.org/2000/svg">
<g clip-path="url(#clip0_1841_28)">
<path d="M19.4933 3.54928C19.7464 3.62008 19.9831 3.74007 20.1897 3.90239C20.3964 4.0647 20.5691 4.26616 20.6979 4.49524C20.8266 4.72432 20.909 4.97653 20.9403 5.23746C20.9715 5.4984 20.951 5.76293 20.88 6.01594L14.972 27.0653C14.8288 27.5761 14.4885 28.0091 14.026 28.269C13.5636 28.5289 13.0168 28.5945 12.506 28.4513C11.9952 28.3081 11.5622 27.9678 11.3023 27.5053C11.0423 27.0429 10.9768 26.4961 11.12 25.9853L17.028 4.93328C17.0989 4.68032 17.219 4.44382 17.3814 4.23728C17.5438 4.03075 17.7453 3.85823 17.9743 3.72958C18.2034 3.60094 18.4556 3.51868 18.7164 3.48751C18.9773 3.45635 19.2417 3.47688 19.4947 3.54794L19.4933 3.54928ZM10.08 8.92928C10.4545 9.30428 10.6649 9.81261 10.6649 10.3426C10.6649 10.8726 10.4545 11.3809 10.08 11.7559L5.84 15.9999L10.0827 20.2426C10.4577 20.6178 10.6683 21.1266 10.6682 21.6571C10.668 22.1876 10.4572 22.6963 10.082 23.0713C9.70681 23.4463 9.19801 23.6569 8.66753 23.6568C8.13705 23.6567 7.62835 23.4458 7.25333 23.0706L1.596 17.4133C1.22147 17.0383 1.01109 16.5299 1.01109 15.9999C1.01109 15.4699 1.22147 14.9616 1.596 14.5866L7.252 8.92928C7.43773 8.74342 7.65827 8.59599 7.901 8.4954C8.14374 8.39481 8.40391 8.34304 8.66667 8.34304C8.92942 8.34304 9.18959 8.39481 9.43233 8.4954C9.67506 8.59599 9.89427 8.74342 10.08 8.92928ZM21.92 11.7559C21.7235 11.5728 21.5659 11.352 21.4566 11.1067C21.3473 10.8614 21.2885 10.5965 21.2838 10.328C21.279 10.0595 21.3284 9.79272 21.429 9.54368C21.5296 9.29465 21.6793 9.06842 21.8692 8.87851C22.0591 8.68859 22.2854 8.53887 22.5344 8.43828C22.7834 8.33769 23.0502 8.28829 23.3187 8.29303C23.5873 8.29777 23.8521 8.35655 24.0974 8.46586C24.3428 8.57517 24.5636 8.73278 24.7467 8.92928L30.404 14.5853C30.7789 14.9603 30.9896 15.4689 30.9896 15.9993C30.9896 16.5296 30.7789 17.0382 30.404 17.4133L24.748 23.0706C24.5623 23.2564 24.3418 23.4038 24.0992 23.5043C23.8566 23.6049 23.5965 23.6567 23.3338 23.6568C23.0711 23.6568 22.811 23.6052 22.5683 23.5047C22.3256 23.4042 22.1051 23.257 21.9193 23.0713C21.7336 22.8856 21.5862 22.6651 21.4856 22.4225C21.385 22.1798 21.3332 21.9197 21.3332 21.6571C21.3331 21.3944 21.3848 21.1343 21.4852 20.8916C21.5857 20.6489 21.733 20.4284 21.9187 20.2426L26.1613 15.9999L21.92 11.7559Z" fill="#507ABD"/>
</g>
<defs>
<clipPath id="clip0_1841_28">
<rect width="32" height="32" fill="white"/>
</clipPath>
</defs>
</svg>
