<?xml version="1.0" standalone="no"?>
<!DOCTYPE svg PUBLIC "-//W3C//DTD SVG 20010904//EN"
 "http://www.w3.org/TR/2001/REC-SVG-20010904/DTD/svg10.dtd">
<svg version="1.0" xmlns="http://www.w3.org/2000/svg"
 width="1472.000000pt" height="832.000000pt" viewBox="0 0 1472.000000 832.000000"
 preserveAspectRatio="xMidYMid meet">

<g transform="translate(0.000000,832.000000) scale(0.100000,-0.100000)"
fill="#000000" stroke="none">
<path d="M7968 6803 c6 -2 18 -2 25 0 6 3 1 5 -13 5 -14 0 -19 -2 -12 -5z"/>
<path d="M8058 6803 c12 -2 32 -2 45 0 12 2 2 4 -23 4 -25 0 -35 -2 -22 -4z"/>
<path d="M8173 6803 c9 -2 23 -2 30 0 6 3 -1 5 -18 5 -16 0 -22 -2 -12 -5z"/>
<path d="M8248 6803 c6 -2 18 -2 25 0 6 3 1 5 -13 5 -14 0 -19 -2 -12 -5z"/>
<path d="M7720 6788 c-25 -6 -39 -13 -32 -15 8 -3 33 0 57 7 23 7 52 9 63 6
11 -4 23 -2 27 4 8 13 -53 12 -115 -2z"/>
<path d="M8448 6793 c6 -2 18 -2 25 0 6 3 1 5 -13 5 -14 0 -19 -2 -12 -5z"/>
<path d="M8518 6778 c20 -7 36 -7 42 -2 5 5 -8 10 -33 11 l-42 1 33 -10z"/>
<path d="M7595 6770 c-22 -4 -62 -11 -90 -15 -43 -7 -47 -9 -25 -16 14 -4 39
-7 55 -7 l30 0 -30 9 c-22 6 -14 7 30 4 43 -3 52 -1 30 4 -29 8 -29 9 10 10
22 1 47 6 55 11 12 8 11 10 -5 9 -11 -1 -38 -5 -60 -9z"/>
<path d="M8598 6773 c6 -2 18 -2 25 0 6 3 1 5 -13 5 -14 0 -19 -2 -12 -5z"/>
<path d="M8678 6763 c6 -2 18 -2 25 0 6 3 1 5 -13 5 -14 0 -19 -2 -12 -5z"/>
<path d="M8715 6751 c-3 -5 0 -13 6 -17 7 -4 9 -3 5 4 -3 6 2 13 11 15 16 4
16 5 1 6 -9 0 -19 -3 -23 -8z"/>
<path d="M8780 6740 c34 -11 60 -11 35 0 -11 5 -29 8 -40 8 -16 0 -15 -2 5 -8z"/>
<path d="M7385 6730 l-20 -9 20 1 c11 0 31 4 45 8 l25 8 -25 0 c-14 0 -34 -3
-45 -8z"/>
<path d="M7660 6736 c0 -2 7 -7 16 -10 8 -3 12 -2 9 4 -6 10 -25 14 -25 6z"/>
<path d="M8488 6733 c7 -3 16 -2 19 1 4 3 -2 6 -13 5 -11 0 -14 -3 -6 -6z"/>
<path d="M7608 6723 c6 -2 18 -2 25 0 6 3 1 5 -13 5 -14 0 -19 -2 -12 -5z"/>
<path d="M7307 6709 c-9 -5 -23 -7 -30 -3 -9 5 -9 4 0 -6 9 -10 19 -10 50 3
24 10 31 16 18 16 -11 0 -28 -4 -38 -10z"/>
<path d="M7225 6690 c-19 -8 -19 -9 3 -9 12 -1 22 4 22 9 0 6 -1 10 -2 9 -2 0
-12 -4 -23 -9z"/>
<path d="M8995 6690 c11 -5 27 -9 35 -9 9 0 8 4 -5 9 -11 5 -27 9 -35 9 -9 0
-8 -4 5 -9z"/>
<path d="M7160 6674 l-35 -14 34 5 c34 5 48 12 40 19 -2 2 -20 -3 -39 -10z"/>
<path d="M9060 6670 c8 -5 22 -9 30 -9 10 0 8 3 -5 9 -27 12 -43 12 -25 0z"/>
<path d="M7320 6659 c0 -5 9 -9 20 -9 11 0 20 2 20 4 0 2 -9 6 -20 9 -11 3
-20 1 -20 -4z"/>
<path d="M7098 6653 c7 -3 16 -2 19 1 4 3 -2 6 -13 5 -11 0 -14 -3 -6 -6z"/>
<path d="M7248 6653 c7 -3 16 -2 19 1 4 3 -2 6 -13 5 -11 0 -14 -3 -6 -6z"/>
<path d="M6917 6598 c-49 -16 -86 -32 -84 -34 2 -3 17 0 32 6 15 6 37 8 49 5
15 -5 17 -4 7 3 -10 7 1 13 43 23 31 7 56 16 56 21 0 11 -3 10 -103 -24z"/>
<path d="M7768 6623 c7 -3 16 -2 19 1 4 3 -2 6 -13 5 -11 0 -14 -3 -6 -6z"/>
<path d="M9210 6620 c8 -5 20 -10 25 -10 6 0 3 5 -5 10 -8 5 -19 10 -25 10 -5
0 -3 -5 5 -10z"/>
<path d="M7483 6593 c9 -2 25 -2 35 0 9 3 1 5 -18 5 -19 0 -27 -2 -17 -5z"/>
<path d="M7350 6564 c-69 -7 -131 -11 -137 -9 -7 2 -13 0 -13 -5 0 -6 -15 -10
-32 -10 -39 -1 -228 -39 -343 -70 -44 -12 -87 -23 -95 -24 -22 -4 -61 -17 -95
-32 -16 -7 -73 -29 -125 -48 -52 -19 -115 -44 -140 -56 -82 -41 -128 -59 -136
-52 -4 4 -4 1 0 -5 4 -8 2 -13 -6 -13 -15 0 -93 -40 -176 -89 -29 -17 -55 -31
-58 -31 -2 0 -22 -12 -44 -26 -22 -15 -44 -23 -51 -18 -7 4 -10 3 -6 -3 4 -7
-45 -46 -116 -94 -67 -45 -148 -102 -180 -126 -31 -23 -60 -43 -63 -43 -10 0
-173 -114 -169 -119 3 -2 33 10 67 26 35 17 88 42 118 56 30 15 105 59 165 98
524 343 931 515 1405 595 129 22 485 30 637 14 154 -15 248 -33 413 -77 662
-177 1185 -587 1456 -1142 177 -360 251 -756 224 -1201 -17 -289 -60 -510
-138 -702 -78 -196 -208 -365 -330 -434 l-52 -29 47 -7 c81 -11 323 0 383 18
84 25 206 97 195 115 -4 5 1 6 10 3 12 -5 38 15 88 68 40 41 81 85 92 98 62
77 60 72 42 82 -10 5 -17 14 -17 19 0 6 7 3 16 -5 8 -9 20 -13 26 -10 21 13
159 236 217 350 89 178 165 390 131 369 -9 -5 -11 -4 -6 4 4 6 12 9 17 6 5 -4
9 -4 9 -1 0 2 7 31 15 63 18 74 26 111 30 148 1 17 5 37 8 45 12 31 27 225 26
323 l-2 102 -7 -95 c-5 -52 -12 -106 -18 -120 -9 -24 -10 -23 -17 15 -4 22
-12 46 -18 53 -8 10 -7 16 2 21 16 10 11 73 -6 79 -10 3 -13 -15 -13 -67 0
-69 -13 -100 -25 -61 -5 15 -15 20 -41 20 l-34 0 0 70 0 70 -40 0 c-29 0 -40
-4 -40 -15 0 -12 -16 -15 -80 -15 l-80 0 0 40 0 40 -40 0 -40 0 0 40 0 40 -40
0 c-38 0 -40 -1 -40 -32 0 -18 -7 -41 -14 -51 -12 -15 -14 -12 -20 29 -3 25
-1 54 5 65 13 25 -17 127 -44 150 -15 12 -18 23 -13 43 8 32 -1 69 -15 61 -5
-4 -14 6 -20 22 -6 15 -16 41 -24 58 -8 16 -31 71 -52 120 -39 92 -95 197
-121 227 -7 9 -11 22 -6 29 4 7 3 10 -4 5 -6 -3 -20 11 -33 31 -13 21 -27 41
-32 44 -5 4 -9 19 -9 34 0 16 -4 22 -8 15 -6 -10 -9 -9 -15 0 -4 7 -2 16 5 20
9 5 9 9 1 14 -6 4 -11 2 -11 -3 0 -19 -14 -11 -35 18 -58 82 -182 213 -285
299 -41 35 -86 72 -98 82 -13 11 -25 20 -28 20 -4 0 -96 62 -104 70 -6 6 -24
16 -108 62 -115 63 -167 88 -178 88 -7 0 -14 4 -16 8 -1 5 -37 21 -78 37 -41
15 -88 33 -105 40 -52 22 -179 63 -215 71 -19 3 -41 10 -50 15 -47 24 -330 64
-575 79 -196 12 -265 11 -425 -6z m2640 -1539 c0 -8 -2 -15 -4 -15 -2 0 -6 7
-10 15 -3 8 -1 15 4 15 6 0 10 -7 10 -15z m50 -186 c0 -11 -4 -17 -10 -14 -5
3 -10 13 -10 21 0 8 5 14 10 14 6 0 10 -9 10 -21z m280 -374 c0 -11 -11 -15
-40 -15 -29 0 -40 4 -40 15 0 11 11 15 40 15 29 0 40 -4 40 -15z m327 -7 c-3
-8 -6 -5 -6 6 -1 11 2 17 5 13 3 -3 4 -12 1 -19z m-27 -145 c0 -5 -5 -15 -10
-23 -8 -12 -10 -11 -10 8 0 12 5 22 10 22 6 0 10 -3 10 -7z m-20 -77 c0 -3 -4
-8 -10 -11 -5 -3 -10 -1 -10 4 0 6 5 11 10 11 6 0 10 -2 10 -4z m7 -38 c-3 -8
-6 -5 -6 6 -1 11 2 17 5 13 3 -3 4 -12 1 -19z m-11 -22 c9 -19 9 -23 -1 -20
-7 3 -11 -5 -10 -23 2 -18 1 -20 -2 -5 -2 12 -9 22 -14 22 -10 0 -12 33 -2 43
11 12 18 8 29 -17z"/>
<path d="M9360 6560 c8 -5 20 -10 25 -10 6 0 3 5 -5 10 -8 5 -19 10 -25 10 -5
0 -3 -5 5 -10z"/>
<path d="M6742 6533 c-35 -14 -61 -27 -59 -29 5 -5 109 34 121 46 13 13 13 13
-62 -17z"/>
<path d="M9400 6540 c0 -5 5 -10 11 -10 5 0 7 5 4 10 -3 6 -8 10 -11 10 -2 0
-4 -4 -4 -10z"/>
<path d="M8320 6520 c0 -5 5 -10 10 -10 6 0 10 5 10 10 0 6 -4 10 -10 10 -5 0
-10 -4 -10 -10z"/>
<path d="M9470 6500 c-9 -6 -10 -10 -3 -10 6 0 15 5 18 10 8 12 4 12 -15 0z"/>
<path d="M6668 6483 c7 -3 16 -2 19 1 4 3 -2 6 -13 5 -11 0 -14 -3 -6 -6z"/>
<path d="M6717 6469 c7 -7 15 -10 18 -7 3 3 -2 9 -12 12 -14 6 -15 5 -6 -5z"/>
<path d="M8510 6460 c0 -11 68 -25 77 -16 4 3 -5 6 -20 6 -14 0 -29 5 -32 10
-8 13 -25 13 -25 0z"/>
<path d="M9568 6449 c13 -5 35 -18 49 -29 14 -11 31 -20 37 -20 6 0 -9 14 -34
30 -25 16 -52 30 -60 29 -8 0 -4 -4 8 -10z"/>
<path d="M7365 6403 c-136 -7 -382 -48 -520 -87 -102 -29 -215 -65 -247 -79
-18 -8 -69 -29 -113 -47 -177 -70 -475 -241 -660 -378 -246 -182 -489 -425
-677 -680 -212 -284 -414 -674 -523 -1009 -165 -501 -175 -1021 -29 -1398 42
-109 119 -251 134 -247 7 1 8 -2 5 -8 -10 -16 93 -146 167 -210 131 -115 242
-174 418 -220 149 -39 187 -39 101 1 -171 79 -372 383 -446 678 -57 226 -57
560 0 834 104 501 405 1013 836 1423 110 104 125 118 234 203 236 184 552 350
845 443 69 22 130 41 135 43 6 2 0 4 -12 4 -12 1 -30 4 -40 7 -14 5 -15 4 -4
-4 12 -9 9 -12 -15 -17 -16 -4 -42 -11 -57 -17 -15 -6 -30 -8 -33 -5 -4 3 16
13 42 21 45 15 46 16 11 10 -26 -3 -37 -2 -32 5 3 6 1 11 -5 11 -6 0 -13 -7
-16 -15 -4 -8 -18 -15 -33 -14 l-26 1 25 9 c23 8 25 14 22 50 -3 27 -1 39 6
35 5 -3 13 1 16 9 4 11 0 15 -11 13 -9 -2 -18 3 -21 10 -3 10 5 12 34 8 28 -4
32 -3 14 2 -24 8 -23 9 12 16 21 4 40 11 43 16 3 5 -18 2 -47 -6 -102 -29
-183 -55 -218 -69 -19 -7 -66 -26 -105 -41 -82 -31 -302 -139 -362 -177 -24
-15 -46 -27 -49 -27 -4 0 -22 -11 -40 -25 -18 -14 -35 -25 -37 -25 -6 0 -158
-102 -222 -150 -88 -65 -187 -149 -297 -252 -60 -55 -108 -96 -108 -92 0 9 97
121 190 218 257 269 627 510 1011 660 147 58 394 121 551 142 163 22 475 22
623 0 116 -17 333 -72 425 -107 145 -55 316 -151 447 -251 29 -22 57 -37 62
-33 7 4 8 -1 4 -11 -5 -14 -3 -16 11 -11 9 4 15 3 12 -2 -4 -5 26 -40 65 -77
39 -38 96 -102 127 -144 31 -41 65 -84 75 -94 9 -11 17 -25 17 -30 0 -6 7 -19
14 -29 12 -16 14 -16 20 -2 3 9 2 13 -4 10 -11 -7 -13 15 -4 40 5 12 9 13 14
5 5 -9 58 -14 169 -18 l161 -5 1 34 0 34 12 -34 c7 -19 19 -37 27 -39 12 -4
13 -2 3 9 -18 18 -16 34 2 19 8 -7 15 -19 15 -27 0 -8 5 -11 11 -7 8 4 9 -1 5
-17 -6 -21 -5 -22 4 -6 9 14 2 35 -39 112 -46 86 -95 163 -146 226 -11 14 -31
40 -44 57 -13 17 -28 29 -34 25 -6 -3 -7 -1 -3 6 9 14 -105 135 -226 237 -48
41 -145 113 -215 160 -102 67 -133 84 -153 79 -16 -4 -20 -3 -12 3 10 7 2 16
-33 36 -26 14 -52 23 -58 19 -6 -3 -7 -1 -3 5 4 7 2 12 -4 12 -5 0 -29 9 -53
19 -35 17 -133 55 -257 101 -14 5 -43 14 -65 19 -22 5 -75 19 -118 31 -43 11
-94 23 -115 25 -20 2 -73 11 -117 19 -79 15 -337 38 -385 34 -14 -1 -52 -3
-85 -5z m502 -59 c-3 -3 -12 -4 -19 -1 -8 3 -5 6 6 6 11 1 17 -2 13 -5z m416
-91 c-7 -2 -19 -2 -25 0 -7 3 -2 5 12 5 14 0 19 -2 13 -5z m164 -69 c-3 -3
-12 -4 -19 -1 -8 3 -5 6 6 6 11 1 17 -2 13 -5z m-400 -200 c-3 -3 -12 -4 -19
-1 -8 3 -5 6 6 6 11 1 17 -2 13 -5z m788 -14 c3 -5 -1 -10 -9 -10 -9 0 -16 5
-16 10 0 6 4 10 9 10 6 0 13 -4 16 -10z m-818 -6 c-3 -3 -12 -4 -19 -1 -8 3
-5 6 6 6 11 1 17 -2 13 -5z m1064 -181 c13 -16 12 -17 -3 -4 -10 7 -18 15 -18
17 0 8 8 3 21 -13z m-2267 -106 c7 -6 4 -7 -7 -3 -10 3 -23 6 -29 6 -6 0 -5 7
3 16 11 13 14 13 18 3 2 -8 9 -18 15 -22z m-104 13 c18 -12 2 -12 -25 0 -13 6
-15 9 -5 9 8 0 22 -4 30 -9z m130 -66 c0 -2 -7 -4 -15 -4 -8 0 -15 4 -15 10 0
5 7 7 15 4 8 -4 15 -8 15 -10z m-160 -64 c-8 -5 -19 -10 -25 -10 -5 0 -3 5 5
10 8 5 20 10 25 10 6 0 3 -5 -5 -10z m2420 -321 c0 -6 -4 -7 -10 -4 -5 3 -10
11 -10 16 0 6 5 7 10 4 6 -3 10 -11 10 -16z"/>
<path d="M6380 6370 c-9 -6 -10 -10 -3 -10 6 0 15 5 18 10 8 12 4 12 -15 0z"/>
<path d="M9688 6373 c6 -2 9 -10 6 -15 -4 -7 -2 -8 5 -4 13 9 5 26 -12 25 -9
0 -8 -2 1 -6z"/>
<path d="M9740 6328 c-12 -8 -12 -9 2 -5 9 3 19 1 22 -6 3 -9 5 -9 5 0 1 18
-13 23 -29 11z"/>
<path d="M9790 6306 c0 -2 8 -10 18 -17 15 -13 16 -12 3 4 -13 16 -21 21 -21
13z"/>
<path d="M9843 6255 c0 -7 6 -11 13 -8 7 2 17 -5 24 -16 6 -12 16 -21 22 -21
13 0 -19 38 -43 50 -11 6 -16 5 -16 -5z"/>
<path d="M6144 6238 l-19 -23 23 19 c21 18 27 26 19 26 -2 0 -12 -10 -23 -22z"/>
<path d="M6100 6209 c0 -5 5 -7 10 -4 6 3 10 8 10 11 0 2 -4 4 -10 4 -5 0 -10
-5 -10 -11z"/>
<path d="M9965 6150 c3 -5 8 -10 11 -10 2 0 4 5 4 10 0 6 -5 10 -11 10 -5 0
-7 -4 -4 -10z"/>
<path d="M5974 6134 c-18 -14 -18 -15 4 -4 12 6 22 13 22 15 0 8 -5 6 -26 -11z"/>
<path d="M10000 6127 c0 -3 16 -23 36 -44 32 -33 34 -34 16 -7 -21 31 -52 61
-52 51z"/>
<path d="M10166 5933 c-6 -14 -5 -15 5 -6 7 7 10 15 7 18 -3 3 -9 -2 -12 -12z"/>
<path d="M10205 5875 c0 -14 5 -21 13 -18 6 3 12 9 12 13 0 4 -6 12 -12 18
-10 8 -13 5 -13 -13z"/>
<path d="M10268 5800 c12 -12 22 -26 22 -32 0 -6 3 -8 6 -5 9 9 -24 57 -38 57
-7 0 -2 -9 10 -20z"/>
<path d="M6883 5724 c-3 -9 -1 -20 4 -25 13 -13 40 -2 40 16 0 19 -37 27 -44
9z"/>
<path d="M10340 5701 c0 -6 4 -13 10 -16 6 -3 7 1 4 9 -7 18 -14 21 -14 7z"/>
<path d="M9730 5570 c0 -5 5 -10 10 -10 6 0 10 5 10 10 0 6 -4 10 -10 10 -5 0
-10 -4 -10 -10z"/>
<path d="M10416 5557 c3 -10 9 -15 12 -12 3 3 0 11 -7 18 -10 9 -11 8 -5 -6z"/>
<path d="M10456 5477 c3 -10 9 -15 12 -12 3 3 0 11 -7 18 -10 9 -11 8 -5 -6z"/>
<path d="M10491 5400 c14 -31 19 -36 19 -24 0 6 -7 19 -16 30 -14 18 -14 18
-3 -6z"/>
<path d="M4843 5183 c-142 -159 -311 -389 -426 -580 -356 -589 -530 -1204
-488 -1726 21 -253 64 -415 162 -608 192 -377 497 -603 924 -685 123 -24 386
-24 514 0 434 79 825 355 1061 747 27 46 50 88 50 94 0 5 -19 -9 -42 -32 -190
-181 -431 -329 -658 -401 -161 -51 -202 -57 -405 -57 -178 0 -197 2 -290 28
-432 120 -720 483 -821 1034 -26 142 -27 563 -1 718 53 317 187 696 358 1011
52 96 258 417 335 522 l16 22 -105 0 -106 0 -78 -87z"/>
<path d="M9258 5203 c34 -2 90 -2 125 0 34 2 6 3 -63 3 -69 0 -97 -1 -62 -3z"/>
<path d="M9930 5191 c0 -6 5 -13 10 -16 6 -3 10 1 10 9 0 9 -4 16 -10 16 -5 0
-10 -4 -10 -9z"/>
<path d="M6927 5169 c-93 -22 -139 -67 -209 -204 -28 -55 -70 -134 -93 -175
-23 -41 -96 -172 -160 -290 -65 -118 -180 -325 -255 -460 -75 -135 -156 -281
-180 -325 -24 -44 -132 -241 -242 -437 -109 -197 -198 -360 -198 -363 0 -3 79
-4 176 -3 l177 3 139 255 c76 140 151 278 166 305 l27 50 695 5 695 5 87 150
c49 82 88 153 88 158 0 6 -104 8 -264 5 l-265 -5 -3 471 c-4 408 -7 479 -21
530 -43 145 -158 299 -243 324 -47 14 -63 14 -117 1z m38 -651 c3 -13 4 -167
3 -343 l-3 -320 -195 -8 c-107 -4 -218 -6 -247 -5 l-52 3 85 155 c47 85 129
234 181 330 53 96 103 183 111 193 11 12 30 17 63 17 42 0 49 -3 54 -22z"/>
<path d="M9551 5160 c14 -31 19 -36 19 -24 0 6 -7 19 -16 30 -14 18 -14 18 -3
-6z"/>
<path d="M9970 5169 c0 -5 5 -7 10 -4 6 3 10 8 10 11 0 2 -4 4 -10 4 -5 0 -10
-5 -10 -11z"/>
<path d="M7930 4025 l0 -1115 170 0 170 0 6 26 c4 17 -1 2165 -6 2202 0 1 -76
2 -170 2 l-170 0 0 -1115z"/>
<path d="M9960 5114 c0 -8 5 -12 10 -9 6 4 8 11 5 16 -9 14 -15 11 -15 -7z"/>
<path d="M10572 4980 c0 -14 2 -19 5 -12 2 6 2 18 0 25 -3 6 -5 1 -5 -13z"/>
<path d="M10615 4959 c-4 -6 -5 -12 -2 -15 2 -3 7 2 10 11 7 17 1 20 -8 4z"/>
<path d="M10052 4943 c5 -25 28 -28 28 -4 0 12 -6 21 -16 21 -9 0 -14 -7 -12
-17z"/>
<path d="M10071 4843 c0 -24 -5 -43 -11 -43 -5 0 -10 -9 -10 -20 0 -11 4 -20
9 -20 12 0 25 80 18 106 -3 11 -5 0 -6 -23z"/>
<path d="M10651 4734 c0 -11 3 -14 6 -6 3 7 2 16 -1 19 -3 4 -6 -2 -5 -13z"/>
<path d="M6970 3175 l0 -265 170 0 170 0 0 265 0 265 -170 0 -170 0 0 -265z"/>
<path d="M7163 2426 c-130 -43 -212 -147 -213 -272 0 -116 57 -213 156 -264
42 -21 63 -25 139 -25 81 0 95 3 144 30 81 45 111 88 124 177 16 110 17 108
-110 108 -59 0 -114 -4 -121 -9 -8 -5 -12 -22 -10 -42 2 -28 8 -34 28 -37 99
-10 110 -13 110 -32 0 -30 -55 -85 -98 -98 -97 -29 -184 -2 -232 74 -53 85
-38 187 39 257 69 62 169 72 254 24 l38 -21 31 31 c38 38 32 50 -44 83 -64 27
-177 35 -235 16z"/>
<path d="M9926 2418 c-21 -29 -20 -51 2 -71 52 -47 125 16 85 72 -19 29 -67
28 -87 -1z"/>
<path d="M9685 2352 c-3 -3 -5 -23 -5 -44 0 -34 -3 -38 -25 -38 -22 0 -25 -4
-25 -40 0 -35 3 -40 24 -40 24 0 24 -1 25 -116 2 -129 8 -152 46 -182 30 -24
102 -39 117 -24 18 18 -1 59 -37 81 l-35 20 0 111 0 110 35 0 c34 0 35 1 35
40 0 39 -1 40 -35 40 -35 0 -35 0 -35 45 l0 45 -40 -2 c-22 -1 -42 -4 -45 -6z"/>
<path d="M7725 2271 c-46 -12 -68 -26 -108 -70 -41 -46 -52 -88 -42 -166 12
-101 82 -164 193 -173 59 -5 128 16 157 48 16 18 16 20 -2 44 -21 29 -26 30
-56 14 -66 -35 -147 -25 -181 23 -32 47 -27 49 135 49 l152 0 -6 50 c-3 28
-16 69 -29 91 -38 69 -136 110 -213 90z m133 -116 c12 -14 22 -30 22 -36 0 -5
-46 -9 -105 -9 -88 0 -105 2 -105 15 0 21 46 63 73 67 40 6 92 -11 115 -37z"/>
<path d="M8192 2270 c-19 -4 -39 -13 -45 -19 -16 -16 -37 -14 -37 4 0 11 -11
15 -40 15 l-40 0 0 -200 0 -200 45 0 45 0 0 131 0 131 29 29 c38 37 82 39 116
4 24 -23 25 -29 25 -160 l0 -135 45 0 45 0 0 153 c0 133 -3 156 -20 184 -34
57 -98 81 -168 63z"/>
<path d="M8602 2270 c-116 -27 -182 -145 -148 -263 25 -87 110 -147 206 -147
34 0 150 47 150 61 0 4 -10 20 -22 34 -23 26 -24 26 -60 11 -47 -20 -117 -20
-145 -1 -11 8 -26 28 -31 45 l-11 30 156 0 155 0 -7 48 c-4 26 -15 66 -25 88
-30 69 -133 114 -218 94z m129 -109 c16 -16 29 -34 29 -40 0 -7 -38 -11 -110
-11 l-111 0 16 30 c20 39 41 49 98 50 41 0 53 -5 78 -29z"/>
<path d="M9081 2269 c-18 -4 -46 -17 -62 -28 -29 -21 -29 -21 -29 -1 0 12 -7
20 -17 21 -70 5 -68 6 -71 -31 -2 -19 -1 -108 3 -197 l7 -163 39 0 39 0 0 105
c0 112 11 156 48 189 22 19 54 24 88 13 19 -7 23 -2 32 35 6 23 9 45 7 49 -8
11 -48 15 -84 8z"/>
<path d="M9340 2267 c-61 -15 -120 -42 -120 -57 0 -11 60 -69 72 -70 4 0 18
11 32 25 21 20 35 25 79 25 60 0 87 -19 87 -62 0 -24 -1 -24 -48 -15 -58 12
-127 3 -169 -23 -56 -34 -68 -126 -23 -183 38 -48 148 -59 221 -23 39 20 39
20 39 1 0 -11 11 -15 39 -15 l39 0 -5 158 c-5 174 -11 191 -74 223 -48 25
-105 30 -169 16z m104 -231 c48 -20 52 -33 20 -67 -24 -25 -35 -29 -81 -29
-43 0 -54 4 -63 21 -34 62 43 109 124 75z"/>
<path d="M10625 2271 c-136 -34 -200 -188 -132 -318 50 -95 222 -124 316 -54
22 17 23 19 7 49 -19 37 -16 36 -52 17 -72 -37 -194 -6 -194 50 l0 24 148 3
147 3 -2 43 c-3 66 -38 128 -86 156 -48 27 -108 38 -152 27z m119 -106 c50
-46 38 -55 -79 -55 l-105 0 12 26 c26 56 124 73 172 29z"/>
<path d="M9920 2069 l0 -200 48 3 47 3 3 198 2 197 -50 0 -50 0 0 -201z"/>
<path d="M10379 2260 c-8 -5 -35 -59 -59 -119 -23 -61 -46 -108 -50 -106 -5 3
-30 55 -56 115 l-48 110 -48 0 c-26 0 -48 -2 -48 -5 0 -3 19 -45 43 -93 24
-48 63 -133 87 -189 35 -84 47 -102 67 -106 21 -4 27 1 42 37 24 54 53 118
112 245 27 57 49 108 49 112 0 12 -71 11 -91 -1z"/>
<path d="M9383 1728 c-19 -26 -126 -288 -120 -294 13 -14 53 7 70 36 16 26 24
30 63 30 44 0 65 -13 89 -54 7 -12 19 -17 37 -14 l27 3 -74 153 c-40 83 -76
152 -78 152 -3 0 -9 -6 -14 -12z m32 -134 c19 -47 20 -44 -19 -44 l-34 0 15
40 c9 22 18 40 19 40 2 0 11 -16 19 -36z"/>
<path d="M6804 1708 c-3 -13 -33 -78 -64 -145 -46 -97 -55 -123 -43 -127 29
-11 43 -6 58 23 27 54 127 54 157 0 12 -20 25 -29 43 -29 14 0 25 2 25 5 0 3
-28 65 -61 138 -72 154 -99 186 -115 135z m45 -119 c6 -18 11 -34 11 -35 0 -2
-13 -4 -30 -4 -16 0 -30 2 -30 4 0 14 24 66 30 66 4 0 13 -14 19 -31z"/>
<path d="M7060 1586 c0 -122 2 -145 16 -150 43 -16 44 -13 44 144 l0 150 -30
0 -30 0 0 -144z"/>
<path d="M7501 1708 c-77 -41 -101 -120 -60 -199 38 -76 144 -99 227 -49 38
23 39 31 11 48 -18 11 -27 11 -56 -3 -74 -36 -153 22 -139 100 12 60 77 91
134 62 30 -14 77 -13 87 3 11 17 -59 54 -109 58 -40 3 -61 -2 -95 -20z"/>
<path d="M7870 1711 c-48 -26 -72 -62 -77 -118 -5 -61 20 -109 73 -141 79 -46
193 -11 230 70 58 128 -98 258 -226 189z m125 -46 c61 -25 73 -98 26 -146 -56
-56 -148 -30 -167 47 -10 41 7 77 46 96 42 22 51 22 95 3z"/>
<path d="M8212 1583 l3 -148 28 -3 27 -3 0 93 c1 86 2 91 16 73 8 -11 24 -31
35 -45 l20 -25 32 39 32 38 10 -83 c9 -76 12 -84 33 -87 22 -3 22 -3 22 142 0
138 -1 146 -19 146 -11 0 -36 -20 -57 -45 -20 -25 -42 -45 -48 -45 -6 0 -19
12 -29 28 -31 49 -42 59 -75 67 l-33 7 3 -149z"/>
<path d="M9000 1580 l0 -150 24 0 c20 0 24 6 30 41 4 22 4 44 1 48 -6 10 29
21 66 21 15 0 38 9 53 21 20 16 26 29 26 60 0 78 -40 109 -140 109 l-60 0 0
-150z m121 91 c40 -3 28 -74 -14 -85 -43 -10 -57 2 -57 49 0 42 1 44 28 41 15
-2 34 -4 43 -5z"/>
<path d="M9629 1722 c-1 -4 0 -68 1 -142 1 -89 6 -137 13 -142 30 -19 36 -7
39 79 l3 87 65 -77 c35 -42 70 -77 77 -77 11 0 13 29 11 138 l-3 137 -25 0
c-24 0 -25 -3 -30 -70 l-5 -70 -50 61 c-46 56 -94 94 -96 76z"/>
<path d="M9940 1724 c0 -3 13 -24 29 -47 56 -82 70 -121 68 -183 -2 -57 -1
-59 26 -62 l27 -3 0 68 c0 65 3 73 50 148 l51 80 -28 3 c-21 3 -33 -3 -48 -23
-55 -75 -48 -73 -84 -22 -26 38 -38 47 -61 47 -17 0 -30 -3 -30 -6z"/>
<path d="M8592 1578 l3 -143 28 -3 27 -3 1 93 c0 62 3 86 9 73 5 -11 19 -33
32 -48 l23 -29 36 52 36 52 5 -92 c3 -50 8 -93 11 -96 3 -3 15 -3 26 1 20 6
21 13 21 146 l0 139 -24 0 c-17 0 -38 -16 -69 -52 l-44 -52 -38 52 c-27 38
-43 52 -61 52 l-25 0 3 -142z"/>
</g>
</svg>
