<svg width="18" height="18" viewBox="0 0 18 18" fill="none" xmlns="http://www.w3.org/2000/svg">
<g clip-path="url(#clip0_1865_43)">
<path d="M10.965 1.99654C11.1074 2.03637 11.2405 2.10387 11.3567 2.19517C11.473 2.28647 11.5701 2.39979 11.6425 2.52865C11.715 2.6575 11.7613 2.79938 11.7789 2.94615C11.7965 3.09292 11.785 3.24172 11.745 3.38404L8.42175 15.2243C8.34119 15.5116 8.14979 15.7552 7.88965 15.9014C7.62952 16.0476 7.32196 16.0845 7.03463 16.0039C6.7473 15.9234 6.50374 15.732 6.35753 15.4718C6.21132 15.2117 6.17444 14.9041 6.255 14.6168L9.57825 2.77504C9.61816 2.63276 9.68571 2.49972 9.77705 2.38355C9.86838 2.26737 9.98171 2.17033 10.1106 2.09797C10.2394 2.0256 10.3813 1.97933 10.528 1.9618C10.6747 1.94427 10.8235 1.95582 10.9658 1.99579L10.965 1.99654ZM5.67 5.02279C5.88068 5.23373 5.99901 5.51967 5.99901 5.81779C5.99901 6.11592 5.88068 6.40186 5.67 6.61279L3.285 9.00004L5.6715 11.3865C5.88245 11.5976 6.00092 11.8838 6.00085 12.1822C6.00078 12.4806 5.88217 12.7667 5.67113 12.9777C5.46008 13.1886 5.17388 13.3071 4.87549 13.307C4.57709 13.3069 4.29095 13.1883 4.08 12.9773L0.897751 9.79504C0.687075 9.58411 0.568741 9.29817 0.568741 9.00004C0.568741 8.70192 0.687075 8.41598 0.897751 8.20504L4.07925 5.02279C4.18373 4.91825 4.30778 4.83532 4.44432 4.77874C4.58085 4.72216 4.7272 4.69303 4.875 4.69303C5.0228 4.69303 5.16915 4.72216 5.30569 4.77874C5.44223 4.83532 5.56553 4.91825 5.67 5.02279ZM12.33 6.61279C12.2195 6.5098 12.1308 6.3856 12.0693 6.2476C12.0078 6.1096 11.9748 5.96063 11.9721 5.80958C11.9694 5.65852 11.9972 5.50848 12.0538 5.3684C12.1104 5.22832 12.1946 5.10106 12.3014 4.99424C12.4083 4.88741 12.5355 4.80319 12.6756 4.74661C12.8157 4.69003 12.9657 4.66224 13.1168 4.66491C13.2678 4.66757 13.4168 4.70063 13.5548 4.76212C13.6928 4.82361 13.817 4.91226 13.92 5.02279L17.1023 8.20429C17.3132 8.41526 17.4316 8.70136 17.4316 8.99967C17.4316 9.29798 17.3132 9.58408 17.1023 9.79504L13.9208 12.9773C13.8163 13.0818 13.6923 13.1647 13.5558 13.2213C13.4193 13.2778 13.273 13.307 13.1253 13.307C12.9775 13.307 12.8312 13.278 12.6947 13.2215C12.5582 13.165 12.4341 13.0821 12.3296 12.9777C12.2251 12.8732 12.1422 12.7492 12.0857 12.6127C12.0291 12.4762 11.9999 12.3299 11.9999 12.1822C11.9999 12.0344 12.0289 11.8881 12.0854 11.7516C12.142 11.6151 12.2248 11.491 12.3293 11.3865L14.7158 9.00004L12.33 6.61279Z" fill="white"/>
</g>
<defs>
<clipPath id="clip0_1865_43">
<rect width="18" height="18" fill="white"/>
</clipPath>
</defs>
</svg>
