<svg width="18" height="18" viewBox="0 0 18 18" fill="none" xmlns="http://www.w3.org/2000/svg">
<path d="M14.25 10.5H15.75C15.9489 10.5 16.1397 10.421 16.2803 10.2803C16.421 10.1397 16.5 9.94891 16.5 9.75C16.5 9.55109 16.421 9.36032 16.2803 9.21967C16.1397 9.07902 15.9489 9 15.75 9H14.25V8.25C14.2429 7.90452 14.19 7.56152 14.0925 7.23C14.7975 6.95972 15.4044 6.48293 15.834 5.86202C16.2636 5.24111 16.4957 4.505 16.5 3.75C16.5 3.55109 16.421 3.36032 16.2803 3.21967C16.1397 3.07902 15.9489 3 15.75 3C15.5511 3 15.3603 3.07902 15.2197 3.21967C15.079 3.36032 15 3.55109 15 3.75C14.9993 4.23363 14.8429 4.70418 14.5538 5.0919C14.2647 5.47961 13.8583 5.76386 13.395 5.9025C13.0251 5.42848 12.5467 5.05035 12 4.8C12.0077 4.70015 12.0077 4.59985 12 4.5C12 3.70435 11.6839 2.94129 11.1213 2.37868C10.5587 1.81607 9.79565 1.5 9 1.5C8.20435 1.5 7.44129 1.81607 6.87868 2.37868C6.31607 2.94129 6 3.70435 6 4.5C5.9923 4.59985 5.9923 4.70015 6 4.8C5.44246 5.04624 4.95335 5.42466 4.575 5.9025C4.11726 5.75855 3.71753 5.47203 3.43417 5.08478C3.15082 4.69753 2.99869 4.22984 3 3.75C3 3.55109 2.92098 3.36032 2.78033 3.21967C2.63968 3.07902 2.44891 3 2.25 3C2.05109 3 1.86032 3.07902 1.71967 3.21967C1.57902 3.36032 1.5 3.55109 1.5 3.75C1.50432 4.505 1.73645 5.24111 2.166 5.86202C2.59555 6.48293 3.20252 6.95972 3.9075 7.23C3.81004 7.56152 3.75708 7.90452 3.75 8.25V9H2.25C2.05109 9 1.86032 9.07902 1.71967 9.21967C1.57902 9.36032 1.5 9.55109 1.5 9.75C1.5 9.94891 1.57902 10.1397 1.71967 10.2803C1.86032 10.421 2.05109 10.5 2.25 10.5H3.75V11.25C3.75065 11.5976 3.78582 11.9443 3.855 12.285C3.16221 12.5626 2.56803 13.0407 2.14849 13.658C1.72896 14.2752 1.50316 15.0037 1.5 15.75C1.5 15.9489 1.57902 16.1397 1.71967 16.2803C1.86032 16.421 2.05109 16.5 2.25 16.5C2.44891 16.5 2.63968 16.421 2.78033 16.2803C2.92098 16.1397 3 15.9489 3 15.75C3.00203 15.3126 3.13151 14.8852 3.37261 14.5203C3.61371 14.1553 3.95596 13.8685 4.3575 13.695C4.80353 14.5397 5.47156 15.2467 6.28962 15.7398C7.10769 16.2329 8.04479 16.4935 9 16.4935C9.95521 16.4935 10.8923 16.2329 11.7104 15.7398C12.5284 15.2467 13.1965 14.5397 13.6425 13.695C14.044 13.8685 14.3863 14.1553 14.6274 14.5203C14.8685 14.8852 14.998 15.3126 15 15.75C15 15.9489 15.079 16.1397 15.2197 16.2803C15.3603 16.421 15.5511 16.5 15.75 16.5C15.9489 16.5 16.1397 16.421 16.2803 16.2803C16.421 16.1397 16.5 15.9489 16.5 15.75C16.4968 15.0037 16.271 14.2752 15.8515 13.658C15.432 13.0407 14.8378 12.5626 14.145 12.285C14.2142 11.9443 14.2494 11.5976 14.25 11.25V10.5ZM8.25 14.925C7.40298 14.7521 6.6417 14.2919 6.09502 13.6222C5.54834 12.9525 5.24982 12.1145 5.25 11.25V8.25C5.25 7.65326 5.48705 7.08097 5.90901 6.65901C6.33097 6.23705 6.90326 6 7.5 6H8.25V14.925ZM7.5 4.5C7.5 4.10218 7.65804 3.72064 7.93934 3.43934C8.22064 3.15804 8.60218 3 9 3C9.39782 3 9.77936 3.15804 10.0607 3.43934C10.342 3.72064 10.5 4.10218 10.5 4.5H7.5ZM12.75 11.25C12.7502 12.1145 12.4517 12.9525 11.905 13.6222C11.3583 14.2919 10.597 14.7521 9.75 14.925V6H10.5C11.0967 6 11.669 6.23705 12.091 6.65901C12.5129 7.08097 12.75 7.65326 12.75 8.25V11.25Z" fill="white"/>
</svg>
