<svg width="18" height="18" viewBox="0 0 18 18" fill="none" xmlns="http://www.w3.org/2000/svg">
<path fill-rule="evenodd" clip-rule="evenodd" d="M4.21875 1.125C3.99497 1.125 3.78036 1.21389 3.62213 1.37213C3.46389 1.53036 3.375 1.74497 3.375 1.96875C3.375 2.19253 3.46389 2.40714 3.62213 2.56537C3.78036 2.72361 3.99497 2.8125 4.21875 2.8125H11.5312C12.5009 2.8125 13.4309 3.19771 14.1166 3.88339C14.8023 4.56907 15.1875 5.49905 15.1875 6.46875V10.6875H14.3438C14.12 10.6875 13.9054 10.7764 13.7471 10.9346C13.5889 11.0929 13.5 11.3075 13.5 11.5312C13.5 11.755 13.5889 11.9696 13.7471 12.1279C13.9054 12.2861 14.12 12.375 14.3438 12.375H16.875V6.46875C16.875 5.0515 16.312 3.6923 15.3099 2.69015C14.3077 1.688 12.9485 1.125 11.5312 1.125H4.21875ZM14.625 16.0312C14.625 16.255 14.5361 16.4696 14.3779 16.6279C14.2196 16.7861 14.005 16.875 13.7812 16.875H6.46875C5.0515 16.875 3.6923 16.312 2.69015 15.3099C1.688 14.3077 1.125 12.9485 1.125 11.5312V5.625H3.65625C3.88003 5.625 4.09464 5.71389 4.25287 5.87213C4.41111 6.03036 4.5 6.24497 4.5 6.46875C4.5 6.69253 4.41111 6.90714 4.25287 7.06537C4.09464 7.22361 3.88003 7.3125 3.65625 7.3125H2.8125V11.5312C2.8125 12.5009 3.19771 13.4309 3.88339 14.1166C4.56907 14.8023 5.49905 15.1875 6.46875 15.1875H13.7812C14.005 15.1875 14.2196 15.2764 14.3779 15.4346C14.5361 15.5929 14.625 15.8075 14.625 16.0312ZM6.9975 5.8725C7.1557 5.71449 7.37016 5.62574 7.59375 5.62574C7.81734 5.62574 8.0318 5.71449 8.19 5.8725L10.7212 8.40375L11.3175 9L10.7212 9.59625L8.19 12.1275C8.11276 12.2104 8.0196 12.2769 7.91611 12.323C7.81261 12.3691 7.70088 12.3939 7.58759 12.3959C7.4743 12.3979 7.36176 12.3771 7.2567 12.3346C7.15164 12.2922 7.0562 12.229 6.97608 12.1489C6.89596 12.0688 6.8328 11.9734 6.79036 11.8683C6.74793 11.7632 6.72709 11.6507 6.72908 11.5374C6.73108 11.4241 6.75588 11.3124 6.802 11.2089C6.84811 11.1054 6.9146 11.0122 6.9975 10.935L8.9325 9L6.9975 7.065C6.83949 6.9068 6.75074 6.69234 6.75074 6.46875C6.75074 6.24516 6.83949 6.0307 6.9975 5.8725Z" fill="white"/>
</svg>
