<svg width="18" height="18" viewBox="0 0 18 18" fill="none" xmlns="http://www.w3.org/2000/svg">
<path d="M1.125 3.9375C1.125 3.19158 1.42132 2.47621 1.94876 1.94876C2.47621 1.42132 3.19158 1.125 3.9375 1.125H11.8125C12.5584 1.125 13.2738 1.42132 13.8012 1.94876C14.3287 2.47621 14.625 3.19158 14.625 3.9375V5.65875C14.2513 5.61546 13.874 5.61395 13.5 5.65425V5.625H2.25V11.8125C2.25 12.2601 2.42779 12.6893 2.74426 13.0057C3.06072 13.3222 3.48995 13.5 3.9375 13.5H7.26075L6.45075 14.31C6.35234 14.4081 6.26134 14.5134 6.1785 14.625H3.9375C3.19158 14.625 2.47621 14.3287 1.94876 13.8012C1.42132 13.2738 1.125 12.5584 1.125 11.8125V3.9375ZM10.0474 7.5645L9.39825 6.91425C9.34595 6.86195 9.28386 6.82047 9.21553 6.79216C9.1472 6.76386 9.07396 6.74929 9 6.74929C8.92604 6.74929 8.8528 6.76386 8.78447 6.79216C8.71614 6.82047 8.65405 6.86195 8.60175 6.91425C8.54945 6.96655 8.50797 7.02864 8.47966 7.09697C8.45136 7.1653 8.43679 7.23854 8.43679 7.3125C8.43679 7.38646 8.45136 7.4597 8.47966 7.52803C8.50797 7.59636 8.54945 7.65845 8.60175 7.71075L9.43987 8.54775C9.60187 8.202 9.80437 7.87425 10.0474 7.5645ZM2.25 4.5H13.5V3.9375C13.5 3.48995 13.3222 3.06072 13.0057 2.74426C12.6893 2.42779 12.2601 2.25 11.8125 2.25H3.9375C3.48995 2.25 3.06072 2.42779 2.74426 2.74426C2.42779 3.06072 2.25 3.48995 2.25 3.9375V4.5ZM7.14825 7.71075C7.20055 7.65845 7.24203 7.59636 7.27034 7.52803C7.29864 7.4597 7.31321 7.38646 7.31321 7.3125C7.31321 7.23854 7.29864 7.1653 7.27034 7.09697C7.24203 7.02864 7.20055 6.96655 7.14825 6.91425C7.09595 6.86195 7.03386 6.82047 6.96553 6.79216C6.8972 6.76386 6.82396 6.74929 6.75 6.74929C6.67604 6.74929 6.6028 6.76386 6.53447 6.79216C6.46614 6.82047 6.40405 6.86195 6.35175 6.91425L4.10175 9.16425C4.04937 9.2165 4.00781 9.27857 3.97945 9.34691C3.95109 9.41525 3.93649 9.48851 3.93649 9.5625C3.93649 9.63649 3.95109 9.70975 3.97945 9.77809C4.00781 9.84643 4.04937 9.9085 4.10175 9.96075L6.35175 12.2108C6.45737 12.3164 6.60063 12.3757 6.75 12.3757C6.89937 12.3757 7.04263 12.3164 7.14825 12.2108C7.25387 12.1051 7.31321 11.9619 7.31321 11.8125C7.31321 11.6631 7.25387 11.5199 7.14825 11.4142L5.29537 9.5625L7.14825 7.71075ZM14.5035 6.777C14.9153 6.82425 15.0334 7.317 14.7398 7.61175L13.6429 8.70863C13.4854 8.86611 13.3605 9.05308 13.2752 9.25885C13.19 9.46461 13.1461 9.68515 13.1461 9.90788C13.1461 10.1306 13.19 10.3511 13.2752 10.5569C13.3605 10.7627 13.4854 10.9496 13.6429 11.1071C13.8004 11.2646 13.9873 11.3895 14.1931 11.4748C14.3989 11.56 14.6194 11.6039 14.8421 11.6039C15.0648 11.6039 15.2854 11.56 15.4912 11.4748C15.6969 11.3895 15.8839 11.2646 16.0414 11.1071L17.1383 10.0102C17.4319 9.71662 17.9257 9.83475 17.973 10.2465C18.0514 10.9151 17.9579 11.5926 17.7014 12.215C17.445 12.8374 17.034 13.3841 16.5073 13.8034C15.9807 14.2227 15.3558 14.5007 14.6918 14.6112C14.0278 14.7217 13.3465 14.661 12.7125 14.4349L9.64575 17.5027C9.48826 17.6602 9.3013 17.7852 9.09553 17.8704C8.88976 17.9556 8.66922 17.9995 8.4465 17.9995C8.22378 17.9995 8.00324 17.9556 7.79747 17.8704C7.5917 17.7852 7.40474 17.6602 7.24725 17.5027C7.08976 17.3453 6.96484 17.1583 6.8796 16.9525C6.79437 16.7468 6.7505 16.5262 6.7505 16.3035C6.7505 16.0808 6.79437 15.8602 6.8796 15.6545C6.96484 15.4487 7.08976 15.2617 7.24725 15.1042L10.314 12.0375C10.0878 11.4034 10.0271 10.722 10.1376 10.0579C10.2482 9.39373 10.5263 8.76877 10.9458 8.24211C11.3652 7.71545 11.9121 7.3045 12.5346 7.04812C13.1572 6.79175 13.8348 6.69843 14.5035 6.777Z" fill="white"/>
</svg>
